C:\GBW_MyPrograms\KinderuniversiteitApp\Resultaten\smurftest_v2\Smurf_v1.mot
version=1
nRows=7
nColumns=31
inDegrees=yes
endheader
                time	         pelvis_tilt	           pelvis_tx	           pelvis_ty	       hip_flexion_r	        knee_angle_r	       ankle_angle_r	       hip_flexion_l	        knee_angle_l	       ankle_angle_l	    lumbar_extension	          arm_flex_r	          arm_flex_l	hamstrings_r/activation	bifemsh_r/activation	glut_max_r/activation	iliopsoas_r/activation	rect_fem_r/activation	  vasti_r/activation	gastroc_r/activation	 soleus_r/activation	tib_ant_r/activation	hamstrings_l/activation	bifemsh_l/activation	glut_max_l/activation	iliopsoas_l/activation	rect_fem_l/activation	  vasti_l/activation	gastroc_l/activation	 soleus_l/activation	tib_ant_l/activation	
          0.00000000	         -4.04059491	          0.00000000	          0.04610685	         17.11560679	        -15.40549708	        -20.56883298	         16.88309449	        -15.33968354	        -20.48089659	         -1.78313059	         -2.54181891	         -2.54252558	          0.39049239	          0.70427202	          0.35154393	          0.81067647	          0.66432455	          0.48534197	          0.56808167	          0.61578767	          0.76226408	          0.41602333	          0.69604532	          0.38112082	          0.79331042	          0.65907062	          0.50962737	          0.56637772	          0.62246191	          0.75641588	
          0.00200000	         -4.04154835	          0.00377009	          0.04615554	         17.14502421	        -15.43342861	        -20.56599973	         16.85501094	        -15.32082437	        -20.48223958	         -1.79198163	         -2.53505584	         -2.53568884	          0.38981271	          0.70456489	          0.35057703	          0.81105881	          0.66447131	          0.48462286	          0.56817302	          0.61526892	          0.76253437	          0.41477283	          0.69527194	          0.38193288	          0.79313056	          0.65973129	          0.51179517	          0.56599185	          0.62181989	          0.75692116	
          0.00400000	         -4.04263613	          0.00675099	          0.04615848	         17.17517613	        -15.46068358	        -20.56430951	         16.82708392	        -15.30130596	        -20.48459557	         -1.79981941	         -2.52985258	         -2.53041227	          0.38982433	          0.70402189	          0.35005370	          0.81123837	          0.66471375	          0.48492237	          0.56836588	          0.61547099	          0.76219829	          0.41380620	          0.69525343	          0.38128586	          0.79364722	          0.66005207	          0.51229324	          0.56572911	          0.62171725	          0.75728728	
          0.00600000	         -4.04406158	          0.00801123	          0.04616026	         17.20500804	        -15.48662347	        -20.56340189	         16.80057241	        -15.28148974	        -20.48771928	         -1.80712692	         -2.52584081	         -2.52632948	          0.39048878	          0.70422036	          0.35041826	          0.81088943	          0.66432047	          0.48441318	          0.56869929	          0.61589864	          0.76153106	          0.41286184	          0.69532469	          0.38096154	          0.79404288	          0.66034205	          0.51322479	          0.56567317	          0.62194793	          0.75664719	
          0.00800000	         -4.04615451	          0.00881865	          0.04616054	         17.23434446	        -15.51175893	        -20.56173698	         16.77471530	        -15.25935487	        -20.49138659	         -1.81290273	         -2.52324495	         -2.52366289	          0.39097078	          0.70445387	          0.34964294	          0.81078364	          0.66403571	          0.48391180	          0.56895378	          0.61626804	          0.76144206	          0.41204169	          0.69478386	          0.38119010	          0.79397532	          0.66075307	          0.51449074	          0.56544934	          0.62181514	          0.75684438	
          0.01000000	         -4.04886309	          0.00944644	          0.04616169	         17.26277035	        -15.53662923	        -20.55979531	         16.74991730	        -15.23834761	        -20.49509785	         -1.81659698	         -2.52166454	         -2.52201230	          0.39183355	          0.70382080	          0.35032606	          0.81025830	          0.66388914	          0.48486542	          0.56920807	          0.61673588	          0.76114533	          0.41127378	          0.69530447	          0.38036684	          0.79455851	          0.66092434	          0.51389790	          0.56528256	          0.62165759	          0.75699232	
          0.01200000	         -4.05208616	          0.00997702	          0.04616410	         17.28889729	        -15.55860235	        -20.55782215	         16.72704845	        -15.21830726	        -20.49808629	         -1.81773023	         -2.52158462	         -2.52186292	          0.39306851	          0.70366661	          0.35053164	          0.80981827	          0.66344358	          0.48544269	          0.56949261	          0.61713723	          0.76096400	          0.41093403	          0.69584708	          0.37984224	          0.79459592	          0.66103985	          0.51354034	          0.56512769	          0.62163680	          0.75696298	
